# xmcd
#
# Track frame offsets:
#	150
#	16960
#	37197
#	64045
#	75358
#	88122
#	104333
#	120770
#	140840
#
# Disc length: 2326 seconds
#
# Revision: 1
# Processed by: cddbd v1.5.1PL0 Copyright (c) Steve Scherf et al.
# Submitted via: audiograbber 1.82.02
#
DISCID=6d091409
DTITLE=Fasoulas.Pagalos - Tou Mai Nihtolouloudo
DYEAR=1900
DGENRE=
TTITLE0=Arhi
TTITLE1=Ta Mathia Mias Melahrinis
TTITLE2=Mesa Sto Lako Tou Kadi
TTITLE3=Anamnisi
TTITLE4=O Dikos Sou Skopos
TTITLE5=Fovo Den Eho
TTITLE6=Parapono
TTITLE7=Vrohi Pou Peftei
TTITLE8=N.p
EXTD=
EXTT0=
EXTT1=
EXTT2=
EXTT3=
EXTT4=
EXTT5=
EXTT6=
EXTT7=
EXTT8=
PLAYORDER=
